<mxfile host="65bd71144e">
    <diagram id="2ThcgtfJi6gquSRz2HKs" name="Page-1">
        <mxGraphModel dx="1910" dy="1366" grid="1" gridSize="10" guides="1" tooltips="1" connect="1" arrows="1" fold="1" page="1" pageScale="1" pageWidth="1169" pageHeight="827" math="0" shadow="0">
            <root>
                <mxCell id="0"/>
                <mxCell id="1" parent="0"/>
                <mxCell id="39" value="" style="rounded=0;whiteSpace=wrap;html=1;strokeColor=#1F1F1F;strokeWidth=1;fillColor=#CC99FF;" vertex="1" parent="1">
                    <mxGeometry x="269" y="-640" width="640" height="240" as="geometry"/>
                </mxCell>
                <mxCell id="22" value="0" style="rounded=0;whiteSpace=wrap;html=1;strokeWidth=1;strokeColor=#1F1F1F;fillColor=#CC99FF;fontSize=30;fontColor=#1F1F1F;fontFamily=Roboto;fontSource=https%3A%2F%2Ffonts.googleapis.com%2Fcss%3Ffamily%3DRoboto;" vertex="1" parent="1">
                    <mxGeometry x="269" y="-640" width="80" height="80" as="geometry"/>
                </mxCell>
                <mxCell id="30" value="1" style="rounded=0;whiteSpace=wrap;html=1;strokeWidth=1;strokeColor=#1F1F1F;fillColor=#CC99FF;fontFamily=Roboto;fontSource=https%3A%2F%2Ffonts.googleapis.com%2Fcss%3Ffamily%3DRoboto;fontColor=#1F1F1F;fontSize=30;" vertex="1" parent="1">
                    <mxGeometry x="349" y="-640" width="80" height="80" as="geometry"/>
                </mxCell>
                <mxCell id="31" value="0" style="rounded=0;whiteSpace=wrap;html=1;strokeWidth=1;strokeColor=#1F1F1F;fillColor=#CC99FF;fontFamily=Roboto;fontSource=https%3A%2F%2Ffonts.googleapis.com%2Fcss%3Ffamily%3DRoboto;fontColor=#1F1F1F;fontSize=30;" vertex="1" parent="1">
                    <mxGeometry x="429" y="-640" width="80" height="80" as="geometry"/>
                </mxCell>
                <mxCell id="32" value="0" style="rounded=0;whiteSpace=wrap;html=1;strokeWidth=1;strokeColor=#1F1F1F;fillColor=#CC99FF;fontFamily=Roboto;fontSource=https%3A%2F%2Ffonts.googleapis.com%2Fcss%3Ffamily%3DRoboto;fontColor=#1F1F1F;fontSize=30;" vertex="1" parent="1">
                    <mxGeometry x="509" y="-640" width="80" height="80" as="geometry"/>
                </mxCell>
                <mxCell id="33" value="0" style="rounded=0;whiteSpace=wrap;html=1;strokeWidth=1;strokeColor=#1F1F1F;fillColor=#CC99FF;fontFamily=Roboto;fontSource=https%3A%2F%2Ffonts.googleapis.com%2Fcss%3Ffamily%3DRoboto;fontColor=#1F1F1F;fontSize=30;" vertex="1" parent="1">
                    <mxGeometry x="589" y="-640" width="80" height="80" as="geometry"/>
                </mxCell>
                <mxCell id="34" value="1" style="rounded=0;whiteSpace=wrap;html=1;strokeWidth=1;strokeColor=#1F1F1F;fillColor=#CC99FF;fontFamily=Roboto;fontSource=https%3A%2F%2Ffonts.googleapis.com%2Fcss%3Ffamily%3DRoboto;fontColor=#1F1F1F;fontSize=30;" vertex="1" parent="1">
                    <mxGeometry x="669" y="-640" width="80" height="80" as="geometry"/>
                </mxCell>
                <mxCell id="35" value="0" style="rounded=0;whiteSpace=wrap;html=1;strokeWidth=1;strokeColor=#1F1F1F;fillColor=#CC99FF;fontFamily=Roboto;fontSource=https%3A%2F%2Ffonts.googleapis.com%2Fcss%3Ffamily%3DRoboto;fontColor=#1F1F1F;fontSize=30;" vertex="1" parent="1">
                    <mxGeometry x="749" y="-640" width="80" height="80" as="geometry"/>
                </mxCell>
                <mxCell id="36" value="1" style="rounded=0;whiteSpace=wrap;html=1;strokeWidth=1;strokeColor=#1F1F1F;fillColor=#CC99FF;fontFamily=Roboto;fontSource=https%3A%2F%2Ffonts.googleapis.com%2Fcss%3Ffamily%3DRoboto;fontColor=#1F1F1F;fontSize=30;" vertex="1" parent="1">
                    <mxGeometry x="829" y="-640" width="80" height="80" as="geometry"/>
                </mxCell>
                <mxCell id="37" value="" style="rounded=0;whiteSpace=wrap;html=1;strokeColor=#1F1F1F;strokeWidth=1;fillColor=#CC99FF;" vertex="1" parent="1">
                    <mxGeometry x="269" y="-480" width="640" height="80" as="geometry"/>
                </mxCell>
                <mxCell id="38" value="" style="rounded=0;whiteSpace=wrap;html=1;strokeColor=#1F1F1F;strokeWidth=1;fillColor=#CC99FF;" vertex="1" parent="1">
                    <mxGeometry x="269" y="-560" width="640" height="80" as="geometry"/>
                </mxCell>
                <mxCell id="40" value="" style="rounded=0;whiteSpace=wrap;html=1;strokeColor=#1F1F1F;strokeWidth=1;fillColor=#CC99FF;" vertex="1" parent="1">
                    <mxGeometry x="269" y="-120" width="640" height="80" as="geometry"/>
                </mxCell>
                <mxCell id="41" value="" style="rounded=0;whiteSpace=wrap;html=1;strokeColor=#1F1F1F;strokeWidth=1;fillColor=#CC99FF;" vertex="1" parent="1">
                    <mxGeometry x="269" y="-200" width="640" height="80" as="geometry"/>
                </mxCell>
                <mxCell id="42" value="0x00000" style="text;html=1;strokeColor=none;fillColor=none;align=center;verticalAlign=middle;whiteSpace=wrap;rounded=0;fontFamily=Roboto;fontSource=https%3A%2F%2Ffonts.googleapis.com%2Fcss%3Ffamily%3DRoboto;fontSize=30;fontColor=#F1F1F1;" vertex="1" parent="1">
                    <mxGeometry x="109" y="-615" width="120" height="30" as="geometry"/>
                </mxCell>
                <mxCell id="43" value="0x00001" style="text;html=1;strokeColor=none;fillColor=none;align=center;verticalAlign=middle;whiteSpace=wrap;rounded=0;fontFamily=Roboto;fontSource=https%3A%2F%2Ffonts.googleapis.com%2Fcss%3Ffamily%3DRoboto;fontSize=30;fontColor=#F1F1F1;" vertex="1" parent="1">
                    <mxGeometry x="109" y="-535" width="120" height="30" as="geometry"/>
                </mxCell>
                <mxCell id="44" value="0x00002" style="text;html=1;strokeColor=none;fillColor=none;align=center;verticalAlign=middle;whiteSpace=wrap;rounded=0;fontFamily=Roboto;fontSource=https%3A%2F%2Ffonts.googleapis.com%2Fcss%3Ffamily%3DRoboto;fontSize=30;fontColor=#F1F1F1;" vertex="1" parent="1">
                    <mxGeometry x="109" y="-455" width="120" height="30" as="geometry"/>
                </mxCell>
                <mxCell id="45" value="0x9FFFF" style="text;html=1;strokeColor=none;fillColor=none;align=center;verticalAlign=middle;whiteSpace=wrap;rounded=0;fontFamily=Roboto;fontSource=https%3A%2F%2Ffonts.googleapis.com%2Fcss%3Ffamily%3DRoboto;fontSize=30;fontColor=#F1F1F1;" vertex="1" parent="1">
                    <mxGeometry x="109" y="-175" width="120" height="30" as="geometry"/>
                </mxCell>
                <mxCell id="46" value="0xA0000" style="text;html=1;strokeColor=none;fillColor=none;align=center;verticalAlign=middle;whiteSpace=wrap;rounded=0;fontFamily=Roboto;fontSource=https%3A%2F%2Ffonts.googleapis.com%2Fcss%3Ffamily%3DRoboto;fontSize=30;fontColor=#F1F1F1;" vertex="1" parent="1">
                    <mxGeometry x="109" y="-95" width="120" height="30" as="geometry"/>
                </mxCell>
                <mxCell id="48" value="" style="endArrow=none;dashed=1;html=1;fontFamily=Roboto;fontSource=https%3A%2F%2Ffonts.googleapis.com%2Fcss%3Ffamily%3DRoboto;fontSize=30;fontColor=#F1F1F1;strokeWidth=3;jumpStyle=gap;entryX=1;entryY=1;entryDx=0;entryDy=0;exitX=1;exitY=0;exitDx=0;exitDy=0;strokeColor=#F1F1F1;" edge="1" parent="1" source="41" target="37">
                    <mxGeometry width="50" height="50" relative="1" as="geometry">
                        <mxPoint x="859" y="-200" as="sourcePoint"/>
                        <mxPoint x="909" y="-250" as="targetPoint"/>
                    </mxGeometry>
                </mxCell>
                <mxCell id="49" value="" style="endArrow=none;dashed=1;html=1;fontFamily=Roboto;fontSource=https%3A%2F%2Ffonts.googleapis.com%2Fcss%3Ffamily%3DRoboto;fontSize=30;fontColor=#F1F1F1;strokeWidth=3;jumpStyle=gap;entryX=0;entryY=1;entryDx=0;entryDy=0;exitX=0;exitY=0;exitDx=0;exitDy=0;strokeColor=#F1F1F1;" edge="1" parent="1" source="41" target="37">
                    <mxGeometry width="50" height="50" relative="1" as="geometry">
                        <mxPoint x="279" y="-190" as="sourcePoint"/>
                        <mxPoint x="278.99999999999955" y="-389.9999999999999" as="targetPoint"/>
                    </mxGeometry>
                </mxCell>
                <mxCell id="50" value="" style="endArrow=none;html=1;fontFamily=Roboto;fontSource=https%3A%2F%2Ffonts.googleapis.com%2Fcss%3Ffamily%3DRoboto;fontSize=30;fontColor=#F1F1F1;strokeWidth=6;jumpStyle=gap;entryX=0.016;entryY=1;entryDx=0;entryDy=0;entryPerimeter=0;exitX=0.016;exitY=0;exitDx=0;exitDy=0;exitPerimeter=0;rounded=0;dashed=1;jumpSize=6;strokeColor=#F1F1F1;" edge="1" parent="1" source="41" target="37">
                    <mxGeometry width="50" height="50" relative="1" as="geometry">
                        <mxPoint x="259" y="-290" as="sourcePoint"/>
                        <mxPoint x="309" y="-340" as="targetPoint"/>
                    </mxGeometry>
                </mxCell>
                <mxCell id="51" value="" style="endArrow=none;html=1;fontFamily=Roboto;fontSource=https%3A%2F%2Ffonts.googleapis.com%2Fcss%3Ffamily%3DRoboto;fontSize=30;fontColor=#F1F1F1;strokeWidth=6;jumpStyle=gap;entryX=0.016;entryY=1;entryDx=0;entryDy=0;entryPerimeter=0;exitX=0.016;exitY=0;exitDx=0;exitDy=0;exitPerimeter=0;rounded=0;dashed=1;jumpSize=6;strokeColor=#F1F1F1;" edge="1" parent="1">
                    <mxGeometry width="50" height="50" relative="1" as="geometry">
                        <mxPoint x="899" y="-200" as="sourcePoint"/>
                        <mxPoint x="899" y="-400" as="targetPoint"/>
                    </mxGeometry>
                </mxCell>
                <mxCell id="52" value="Address in Hex" style="text;html=1;strokeColor=none;fillColor=none;align=center;verticalAlign=middle;whiteSpace=wrap;rounded=0;fontFamily=Roboto;fontSource=https%3A%2F%2Ffonts.googleapis.com%2Fcss%3Ffamily%3DRoboto;fontSize=32;fontColor=#F1F1F1;fontStyle=1" vertex="1" parent="1">
                    <mxGeometry x="-1" y="-680" width="240" height="40" as="geometry"/>
                </mxCell>
                <mxCell id="53" value="&lt;font style=&quot;font-size: 26px&quot;&gt;&amp;nbsp; &amp;nbsp;One Byte&lt;br&gt;&amp;nbsp; &amp;nbsp;= 8 bits&lt;/font&gt;" style="shape=callout;whiteSpace=wrap;html=1;perimeter=calloutPerimeter;fontFamily=Roboto;fontSource=https%3A%2F%2Ffonts.googleapis.com%2Fcss%3Ffamily%3DRoboto;fontSize=23;fontColor=#1F1F1F;strokeColor=#1F1F1F;strokeWidth=1;fillColor=#00FFFF;direction=north;base=30;flipH=1;rounded=1;size=61;position=0.5;align=left;position2=0.5;arcSize=16;" vertex="1" parent="1">
                    <mxGeometry x="909" y="-640" width="231" height="80" as="geometry"/>
                </mxCell>
            </root>
        </mxGraphModel>
    </diagram>
</mxfile>